<?xml version="1.0" standalone="no"?>
<svg version="1.0" xmlns="http://www.w3.org/2000/svg"
 width="520.000000pt" height="210.000000pt" viewBox="0 0 520.000000 210.000000"
 preserveAspectRatio="xMidYMid meet">
<g transform="translate(0.000000,210.000000) scale(0.100000,-0.100000)"
fill="#000000" stroke="none">
<path d="M731 1956 c-6 -7 -11 -49 -10 -92 1 -93 -16 -150 -101 -329 -114
-242 -228 -405 -407 -583 -67 -67 -123 -127 -123 -132 0 -6 7 -10 15 -10 26 0
131 47 182 80 45 31 166 147 223 215 84 100 213 303 289 453 23 45 43 82 45
82 3 0 198 -306 221 -348 72 -129 203 -332 225 -349 32 -26 112 -35 206 -22
33 4 79 10 104 12 60 7 80 16 80 37 0 20 -21 39 -75 65 -60 30 -139 78 -147
89 -4 6 -8 7 -8 3 0 -12 -125 89 -189 154 -87 86 -164 175 -299 344 l-80 100
24 26 c39 41 32 66 -42 136 -71 67 -116 90 -133 69z"/>
<path d="M4523 1962 c-8 -5 -12 -31 -11 -72 2 -70 -17 -118 -88 -226 -53 -79
-41 -111 21 -59 58 50 128 110 159 138 17 15 43 35 57 44 15 8 34 28 43 44 16
28 16 29 -13 57 -28 26 -129 82 -148 82 -4 0 -13 -4 -20 -8z"/>
<path d="M2246 1942 c-2 -4 -4 -41 -3 -82 0 -64 -5 -88 -38 -170 -33 -84 -136
-276 -155 -290 -4 -3 -28 -34 -54 -69 -50 -68 -51 -99 -2 -67 14 9 27 15 28
14 4 -4 63 48 123 107 62 61 102 111 137 173 l26 47 84 1 c78 1 139 7 198 19
26 5 42 9 103 24 20 5 37 7 37 4 0 -3 7 0 15 7 8 6 19 9 24 6 5 -4 12 -2 15 3
4 5 24 12 46 16 22 4 42 11 46 16 3 5 10 7 15 4 13 -9 39 20 39 42 0 29 -46
63 -94 69 -40 6 -118 -16 -241 -66 -46 -19 -111 -38 -153 -44 -12 -1 -25 -6
-29 -9 -9 -9 -53 -9 -53 1 0 4 21 38 45 76 41 63 44 71 31 90 -25 39 -176 101
-190 78z"/>
<path d="M4114 1825 c-6 -16 47 -140 82 -193 12 -19 31 -40 42 -48 31 -21 61
8 67 66 8 75 -19 119 -94 156 -58 28 -91 35 -97 19z"/>
<path d="M3647 1734 c-14 -15 -6 -36 40 -107 56 -85 142 -177 166 -177 30 0
52 49 50 111 -3 94 -43 144 -123 154 -16 2 -34 6 -39 9 -16 11 -86 18 -94 10z"/>
<path d="M4640 1594 c-41 -14 -84 -28 -94 -30 -10 -2 -34 -8 -53 -15 -19 -6
-40 -8 -48 -5 -8 3 -15 2 -15 -3 0 -8 -86 -30 -190 -47 -19 -3 -39 -8 -44 -12
-5 -3 -25 -7 -45 -9 -63 -8 -86 -11 -86 -13 0 -1 -13 -4 -30 -6 -40 -7 -52
-20 -39 -41 14 -23 96 -66 103 -55 3 5 15 8 25 6 11 -1 25 0 30 4 6 3 16 7 21
8 6 2 31 9 58 17 34 11 47 12 48 4 5 -55 -34 -174 -61 -182 -9 -3 -30 0 -46 6
-42 16 -78 19 -85 7 -4 -6 -3 -25 3 -42 33 -108 46 -416 22 -516 -21 -87 -3
-157 50 -190 17 -11 22 -9 37 9 10 12 19 26 21 31 2 5 14 11 28 14 14 2 25 5
25 6 0 2 100 11 149 14 61 3 88 -18 113 -88 35 -95 68 -84 110 35 19 56 24 90
24 163 -1 50 -3 102 -6 116 -3 14 -6 84 -6 155 -1 109 2 140 21 194 27 80 22
93 -54 145 -63 43 -95 48 -134 19 -26 -19 -103 -49 -150 -58 -28 -5 -20 12 37
77 46 51 51 78 21 106 -12 11 -15 19 -8 19 13 0 72 9 132 19 16 3 34 8 39 11
6 4 7 1 2 -7 -6 -9 -4 -11 5 -5 8 5 60 10 117 11 56 1 119 8 138 14 30 10 35
15 29 33 -7 25 -50 74 -77 89 -35 19 -62 17 -137 -8z m-115 -427 c12 -19 16
-62 17 -218 2 -276 -1 -319 -23 -319 -9 0 -19 5 -21 12 -4 11 -62 13 -103 3
-11 -2 -47 -11 -80 -20 -90 -22 -87 -25 -83 60 l2 75 46 1 c25 1 48 1 52 0 4
0 31 4 60 10 29 7 54 11 56 10 7 -4 32 29 32 42 0 44 -80 57 -169 28 -36 -12
-67 -21 -71 -21 -3 0 -6 30 -6 68 l0 67 55 -2 c70 -2 178 33 187 60 6 19 -23
50 -38 41 -5 -3 -8 -1 -8 4 0 13 -86 -2 -146 -26 l-51 -21 -2 63 -2 62 43 2
c41 2 65 6 118 18 122 28 117 28 135 1z"/>
<path d="M2700 1558 c0 -4 -7 -5 -15 -2 -8 4 -15 2 -15 -3 0 -5 -21 -15 -47
-22 -27 -8 -52 -15 -58 -17 -5 -2 -28 -8 -50 -14 -22 -6 -56 -16 -75 -21 -19
-6 -48 -12 -65 -13 -16 -2 -30 -5 -30 -6 0 -1 -13 -4 -30 -6 -64 -11 -67 -43
-7 -66 56 -21 162 -14 282 18 59 16 77 20 128 30 17 3 32 9 32 13 0 4 8 7 18
8 32 3 46 8 65 25 24 20 17 41 -19 65 -27 17 -114 26 -114 11z"/>
<path d="M2818 1383 c-10 -2 -18 -9 -18 -14 0 -6 -4 -7 -10 -4 -5 3 -10 2 -10
-3 0 -5 -21 -19 -47 -30 -57 -24 -153 -53 -153 -46 0 3 -9 0 -20 -6 -11 -6
-37 -12 -57 -14 -21 -3 -38 -5 -38 -6 0 -1 -9 -3 -20 -5 -11 -2 -36 -7 -55
-11 -42 -8 -76 -14 -110 -19 -14 -1 -25 -4 -25 -5 0 -5 -113 -20 -190 -25 -78
-4 -85 -15 -38 -60 63 -61 84 -68 158 -52 6 2 15 5 20 8 17 10 90 33 98 31 4
-1 7 2 7 7 0 5 8 8 18 6 9 -1 23 2 30 8 6 5 12 7 12 4 0 -3 16 -1 36 5 46 12
69 17 118 23 21 3 41 7 45 9 3 2 31 7 61 11 30 4 56 10 58 15 2 4 12 6 22 3
11 -3 33 0 50 5 38 14 39 12 25 -138 -12 -124 -10 -325 4 -422 28 -200 135
-387 266 -463 51 -30 154 -67 166 -59 5 3 9 1 9 -4 0 -11 71 -5 83 7 16 16 15
53 -3 109 -26 80 -37 135 -45 222 -17 214 -18 220 -30 208 -5 -5 -30 -135 -41
-217 -3 -24 -12 -60 -19 -80 -10 -30 -16 -36 -39 -34 -55 4 -140 83 -181 168
-58 118 -90 371 -65 505 11 59 48 147 72 170 56 57 56 87 -2 131 -18 13 -37
29 -44 34 -37 31 -61 38 -98 28z"/>
<path d="M3720 1221 c-24 -23 -50 -41 -57 -41 -7 0 -13 -4 -13 -9 0 -5 -13
-12 -30 -16 -16 -4 -30 -10 -30 -13 0 -4 -13 -7 -30 -8 -28 -1 -60 -19 -60
-33 0 -11 60 -43 96 -51 19 -5 34 -4 34 1 0 5 3 8 8 7 12 -2 59 20 67 31 8 14
42 14 50 1 3 -6 -6 -45 -21 -88 -38 -107 -38 -194 0 -282 16 -36 31 -91 34
-122 4 -51 3 -57 -14 -57 -11 0 -39 -2 -64 -5 -25 -3 -76 -6 -115 -7 -68 -1
-105 -11 -105 -28 0 -15 63 -103 85 -117 21 -14 27 -12 76 18 47 28 63 32 124
33 39 0 79 -4 90 -9 11 -5 26 -10 34 -12 8 -1 141 -65 295 -142 155 -76 296
-145 314 -152 34 -13 139 -9 164 6 7 5 15 9 18 9 7 1 88 39 216 101 122 59
144 76 127 102 -6 10 -15 16 -20 16 -24 -5 -269 -16 -338 -17 -85 0 -193 8
-235 18 -14 3 -38 7 -55 10 -66 11 -130 30 -137 40 -4 5 -8 7 -8 3 0 -6 -71
13 -115 32 -28 12 -160 60 -218 79 -44 14 -48 17 -41 41 15 50 6 108 -26 172
-59 116 -31 236 79 343 23 21 41 47 41 57 0 21 -32 54 -85 90 -68 45 -86 45
-135 -1z"/>
<path d="M975 1181 c-2 -5 -16 -7 -31 -5 -14 1 -77 -17 -139 -42 -62 -24 -124
-46 -137 -48 -12 -3 -24 -5 -25 -7 -2 -1 -11 -2 -20 -3 -44 -4 -92 -28 -86
-42 7 -19 73 -52 95 -49 10 2 20 -1 24 -6 3 -5 13 -5 25 1 13 8 19 7 19 0 0
-6 4 -9 9 -6 5 3 26 8 46 12 157 25 305 76 324 112 8 16 7 25 -7 40 -20 24
-89 54 -97 43z"/>
<path d="M2465 1101 c-3 -5 -7 -47 -9 -93 -2 -74 -7 -92 -45 -166 -36 -71 -44
-81 -60 -73 -10 6 -23 17 -31 25 -7 9 -19 16 -27 16 -7 0 -16 7 -19 15 -4 8
-10 15 -14 15 -5 0 -45 25 -89 55 -91 63 -147 90 -156 75 -10 -16 2 -30 143
-174 72 -75 132 -142 132 -150 0 -22 -67 -105 -154 -191 -82 -81 -93 -91 -156
-135 -36 -26 -72 -55 -97 -79 -11 -11 -12 -16 -2 -22 28 -17 139 28 251 102
77 50 79 52 168 142 42 42 79 77 83 77 10 0 123 -155 172 -239 69 -114 98
-119 110 -16 16 136 -24 228 -152 348 l-42 40 46 91 c26 50 59 107 75 127 40
52 48 79 33 109 -15 29 -83 86 -120 100 -32 12 -32 12 -40 1z"/>
<path d="M975 834 c-27 -13 -56 -23 -62 -24 -7 0 -13 -5 -13 -11 0 -5 -4 -7
-10 -4 -5 3 -16 3 -22 -2 -7 -4 -17 -9 -23 -10 -5 -1 -28 -7 -50 -13 -86 -23
-200 -28 -327 -16 -70 6 -75 -3 -42 -74 31 -67 58 -177 79 -315 24 -167 44
-233 71 -242 17 -6 44 25 51 58 7 38 20 47 78 53 28 3 68 8 90 10 93 10 184
18 241 21 110 5 131 26 87 90 -18 27 -23 44 -18 63 13 52 56 131 105 192 28
35 50 65 50 69 0 24 -43 67 -148 148 -42 32 -80 34 -137 7z m21 -158 c6 -10
10 -37 8 -60 -11 -153 -30 -228 -59 -232 -11 -2 -36 -6 -55 -10 -19 -3 -44 -8
-55 -10 -11 -1 -40 -6 -65 -10 -25 -5 -61 -8 -80 -9 -19 0 -38 -4 -42 -10 -5
-6 -8 -5 -9 3 -1 6 -2 15 -3 20 -1 4 -6 43 -10 87 -5 44 -10 87 -11 96 -2 9
-5 35 -6 59 -4 47 -5 46 71 55 19 2 35 4 35 5 0 4 112 21 163 25 17 1 34 4 37
6 13 13 71 2 81 -15z"/>
</g>
</svg>
